<svg width="21" height="21" viewBox="0 0 21 21" fill="none" xmlns="http://www.w3.org/2000/svg">
<path d="M12.3949 20.5129C17.1853 19.662 20.7629 15.4144 20.6303 10.4032C20.4842 4.88224 15.8901 0.525108 10.3692 0.671217C4.84832 0.817328 0.491188 5.41136 0.637299 10.9323C0.769921 15.9435 4.5672 19.996 9.39593 20.5922L9.21369 13.7064L7.71422 13.746C6.88608 13.768 6.19697 13.1144 6.17506 12.2862C6.15314 11.4581 6.80671 10.769 7.63485 10.7471L9.13432 10.7074L9.08141 8.7081C9.03027 6.77578 10.5553 5.16787 12.4876 5.11673L12.9874 5.1035C13.8155 5.08159 14.5047 5.73515 14.5266 6.56329C14.5485 7.39143 13.8949 8.08054 13.0668 8.10245L12.567 8.11568C12.291 8.12299 12.0731 8.35269 12.0804 8.62873L12.1333 10.628L13.6327 10.5883C14.4609 10.5664 15.15 11.22 15.1719 12.0481C15.1938 12.8763 14.5402 13.5654 13.7121 13.5873L12.2126 13.627L12.3949 20.5129Z" fill="#A1AAB7"/>
</svg>
