<svg width="25" height="25" viewBox="0 0 25 25" fill="none" xmlns="http://www.w3.org/2000/svg">
<path d="M7.4159 2.70288C8.03452 2.91326 8.79975 3.24856 9.54095 3.74841C10.4392 3.51684 11.3984 3.3923 12.3924 3.3923C13.3853 3.3923 14.3436 3.51659 15.2411 3.74771C15.9821 3.24811 16.7472 2.91298 17.3656 2.70271C18.0625 2.46577 19.0558 2.08103 19.6455 2.73434C20.0459 3.17788 20.1452 3.92228 20.2166 4.48981C20.2964 5.124 20.315 5.95066 20.1051 6.77027C20.908 7.80707 21.3924 9.04474 21.3924 10.3923C21.3924 12.4345 20.2863 14.2071 18.6492 15.4349C17.8957 16 17.0197 16.4596 16.059 16.7911C16.2734 17.2814 16.3924 17.823 16.3924 18.3923V21.3923C16.3924 21.9446 15.9446 22.3923 15.3924 22.3923H9.39235C8.84007 22.3923 8.39235 21.9446 8.39235 21.3923V20.401C7.43703 20.518 6.63643 20.4145 5.9549 20.1254C5.24311 19.8234 4.74699 19.355 4.37411 18.9075C4.02041 18.4831 3.6348 17.5272 3.0761 17.341C2.55216 17.1663 2.269 16.6 2.44364 16.0761C2.61829 15.5521 3.18461 15.269 3.70855 15.4436C4.37433 15.6655 4.80784 16.1457 5.10549 16.5309C5.58455 17.1508 5.97594 17.9618 6.736 18.2842C7.04856 18.4168 7.50776 18.5048 8.2246 18.406L8.3924 18.3725C8.39513 17.8104 8.51379 17.2757 8.72571 16.7911C7.76503 16.4596 6.88896 16 6.1355 15.4349C4.49836 14.2071 3.39235 12.4345 3.39235 10.3923C3.39235 9.04632 3.87559 7.80995 4.67678 6.77389C4.46609 5.95364 4.48447 5.12609 4.56422 4.49127C4.56582 4.47852 4.56742 4.46572 4.56903 4.45287C4.64191 3.87139 4.72779 3.18613 5.13537 2.73445C5.72496 2.0811 6.71906 2.46591 7.4159 2.70288Z" fill="#A1AAB7"/>
</svg>
