<svg width="25" height="25" viewBox="0 0 25 25" fill="none" xmlns="http://www.w3.org/2000/svg">
<path d="M16.5265 3.45313C19.2876 3.49442 21.4924 5.76623 21.4511 8.52734L21.3315 16.5264C21.2902 19.2875 19.0184 21.4924 16.2573 21.4511L8.25817 21.3315C5.49706 21.2902 3.29221 19.0184 3.33351 16.2573L3.45315 8.25815C3.49445 5.49704 5.76625 3.29219 8.52736 3.33349L16.5265 3.45313ZM12.4521 8.39275C10.2432 8.35971 8.42581 10.1236 8.39277 12.3325C8.35973 14.5413 10.1236 16.3588 12.3325 16.3919C14.5414 16.4249 16.3588 14.661 16.3919 12.4521C16.4249 10.2432 14.661 8.42579 12.4521 8.39275ZM12.4222 10.3925C13.5267 10.409 14.4086 11.3177 14.3921 12.4222C14.3756 13.5267 13.4669 14.4086 12.3624 14.3921C11.2579 14.3756 10.376 13.4669 10.3925 12.3624C10.4091 11.2579 11.3178 10.376 12.4222 10.3925ZM16.9741 6.96021C16.4218 6.95195 15.9675 7.39293 15.9592 7.94515C15.951 8.49737 16.3919 8.95173 16.9442 8.95999C17.4964 8.96825 17.9507 8.52728 17.959 7.97506C17.9673 7.42284 17.5263 6.96847 16.9741 6.96021Z" fill="#A1AAB7"/>
</svg>
