<svg width="253" height="50" viewBox="0 0 253 50" fill="none" xmlns="http://www.w3.org/2000/svg">
<rect width="253" height="50" fill="#DB524D"/>
<path d="M67.0625 30.7031H61.2031V27.3281H67.0625C68.0208 27.3281 68.7969 27.1719 69.3906 26.8594C69.9948 26.5365 70.4375 26.099 70.7188 25.5469C71 24.9844 71.1406 24.3438 71.1406 23.625C71.1406 22.9271 71 22.276 70.7188 21.6719C70.4375 21.0677 69.9948 20.5781 69.3906 20.2031C68.7969 19.8281 68.0208 19.6406 67.0625 19.6406H62.6094V39H58.3125V16.25H67.0625C68.8333 16.25 70.3438 16.5677 71.5938 17.2031C72.8542 17.8281 73.8125 18.6979 74.4688 19.8125C75.1354 20.9167 75.4688 22.1771 75.4688 23.5938C75.4688 25.0625 75.1354 26.3281 74.4688 27.3906C73.8125 28.4531 72.8542 29.2708 71.5938 29.8438C70.3438 30.4167 68.8333 30.7031 67.0625 30.7031ZM77.5781 30.7188V30.3906C77.5781 29.151 77.7552 28.0104 78.1094 26.9688C78.4635 25.9167 78.9792 25.0052 79.6562 24.2344C80.3333 23.4635 81.1615 22.8646 82.1406 22.4375C83.1198 22 84.2344 21.7812 85.4844 21.7812C86.7552 21.7812 87.8802 22 88.8594 22.4375C89.849 22.8646 90.6823 23.4635 91.3594 24.2344C92.0365 25.0052 92.5521 25.9167 92.9062 26.9688C93.2604 28.0104 93.4375 29.151 93.4375 30.3906V30.7188C93.4375 31.9479 93.2604 33.0885 92.9062 34.1406C92.5521 35.1823 92.0365 36.0938 91.3594 36.875C90.6823 37.6458 89.8542 38.2448 88.875 38.6719C87.8958 39.099 86.776 39.3125 85.5156 39.3125C84.2656 39.3125 83.1458 39.099 82.1562 38.6719C81.1667 38.2448 80.3333 37.6458 79.6562 36.875C78.9792 36.0938 78.4635 35.1823 78.1094 34.1406C77.7552 33.0885 77.5781 31.9479 77.5781 30.7188ZM81.7031 30.3906V30.7188C81.7031 31.4583 81.776 32.151 81.9219 32.7969C82.0677 33.4427 82.2917 34.0104 82.5938 34.5C82.8958 34.9896 83.2865 35.375 83.7656 35.6562C84.2552 35.9271 84.8385 36.0625 85.5156 36.0625C86.1823 36.0625 86.7552 35.9271 87.2344 35.6562C87.7135 35.375 88.1042 34.9896 88.4062 34.5C88.7188 34.0104 88.9479 33.4427 89.0938 32.7969C89.2396 32.151 89.3125 31.4583 89.3125 30.7188V30.3906C89.3125 29.6615 89.2396 28.9792 89.0938 28.3438C88.9479 27.6979 88.7188 27.1302 88.4062 26.6406C88.1042 26.1406 87.7083 25.75 87.2188 25.4688C86.7396 25.1771 86.1615 25.0312 85.4844 25.0312C84.8177 25.0312 84.2448 25.1771 83.7656 25.4688C83.2865 25.75 82.8958 26.1406 82.5938 26.6406C82.2917 27.1302 82.0677 27.6979 81.9219 28.3438C81.776 28.9792 81.7031 29.6615 81.7031 30.3906ZM100.547 25.5625V39H96.4219V22.0938H100.312L100.547 25.5625ZM99.9375 29.9375H98.6719C98.6719 28.7604 98.8125 27.6771 99.0938 26.6875C99.3854 25.6979 99.8125 24.8385 100.375 24.1094C100.938 23.3698 101.63 22.7969 102.453 22.3906C103.286 21.9844 104.25 21.7812 105.344 21.7812C106.104 21.7812 106.802 21.8958 107.438 22.125C108.073 22.3438 108.62 22.6927 109.078 23.1719C109.547 23.6406 109.906 24.2552 110.156 25.0156C110.406 25.7656 110.531 26.6667 110.531 27.7188V39H106.406V28.1406C106.406 27.349 106.292 26.7292 106.062 26.2812C105.844 25.8333 105.526 25.5208 105.109 25.3438C104.693 25.1562 104.193 25.0625 103.609 25.0625C102.964 25.0625 102.406 25.1927 101.938 25.4531C101.479 25.7031 101.099 26.0521 100.797 26.5C100.505 26.9479 100.286 27.4635 100.141 28.0469C100.005 28.6302 99.9375 29.2604 99.9375 29.9375ZM110.219 29.1719L108.516 29.4844C108.526 28.4219 108.672 27.4271 108.953 26.5C109.234 25.5625 109.646 24.7448 110.188 24.0469C110.74 23.3385 111.422 22.7865 112.234 22.3906C113.057 21.9844 114.005 21.7812 115.078 21.7812C115.911 21.7812 116.661 21.901 117.328 22.1406C118.005 22.3698 118.583 22.7396 119.062 23.25C119.542 23.75 119.906 24.401 120.156 25.2031C120.417 26.0052 120.547 26.9844 120.547 28.1406V39H116.391V28.125C116.391 27.3021 116.276 26.6719 116.047 26.2344C115.828 25.7969 115.51 25.4948 115.094 25.3281C114.677 25.151 114.188 25.0625 113.625 25.0625C113.052 25.0625 112.552 25.1719 112.125 25.3906C111.708 25.599 111.354 25.8906 111.062 26.2656C110.781 26.6406 110.568 27.0781 110.422 27.5781C110.286 28.0677 110.219 28.599 110.219 29.1719ZM128.359 25.5625V39H124.234V22.0938H128.125L128.359 25.5625ZM127.75 29.9375H126.484C126.484 28.7604 126.625 27.6771 126.906 26.6875C127.198 25.6979 127.625 24.8385 128.188 24.1094C128.75 23.3698 129.443 22.7969 130.266 22.3906C131.099 21.9844 132.062 21.7812 133.156 21.7812C133.917 21.7812 134.615 21.8958 135.25 22.125C135.885 22.3438 136.432 22.6927 136.891 23.1719C137.359 23.6406 137.719 24.2552 137.969 25.0156C138.219 25.7656 138.344 26.6667 138.344 27.7188V39H134.219V28.1406C134.219 27.349 134.104 26.7292 133.875 26.2812C133.656 25.8333 133.339 25.5208 132.922 25.3438C132.505 25.1562 132.005 25.0625 131.422 25.0625C130.776 25.0625 130.219 25.1927 129.75 25.4531C129.292 25.7031 128.911 26.0521 128.609 26.5C128.318 26.9479 128.099 27.4635 127.953 28.0469C127.818 28.6302 127.75 29.2604 127.75 29.9375ZM138.031 29.1719L136.328 29.4844C136.339 28.4219 136.484 27.4271 136.766 26.5C137.047 25.5625 137.458 24.7448 138 24.0469C138.552 23.3385 139.234 22.7865 140.047 22.3906C140.87 21.9844 141.818 21.7812 142.891 21.7812C143.724 21.7812 144.474 21.901 145.141 22.1406C145.818 22.3698 146.396 22.7396 146.875 23.25C147.354 23.75 147.719 24.401 147.969 25.2031C148.229 26.0052 148.359 26.9844 148.359 28.1406V39H144.203V28.125C144.203 27.3021 144.089 26.6719 143.859 26.2344C143.641 25.7969 143.323 25.4948 142.906 25.3281C142.49 25.151 142 25.0625 141.438 25.0625C140.865 25.0625 140.365 25.1719 139.938 25.3906C139.521 25.599 139.167 25.8906 138.875 26.2656C138.594 26.6406 138.38 27.0781 138.234 27.5781C138.099 28.0677 138.031 28.599 138.031 29.1719ZM151.328 30.7188V30.3906C151.328 29.151 151.505 28.0104 151.859 26.9688C152.214 25.9167 152.729 25.0052 153.406 24.2344C154.083 23.4635 154.911 22.8646 155.891 22.4375C156.87 22 157.984 21.7812 159.234 21.7812C160.505 21.7812 161.63 22 162.609 22.4375C163.599 22.8646 164.432 23.4635 165.109 24.2344C165.786 25.0052 166.302 25.9167 166.656 26.9688C167.01 28.0104 167.188 29.151 167.188 30.3906V30.7188C167.188 31.9479 167.01 33.0885 166.656 34.1406C166.302 35.1823 165.786 36.0938 165.109 36.875C164.432 37.6458 163.604 38.2448 162.625 38.6719C161.646 39.099 160.526 39.3125 159.266 39.3125C158.016 39.3125 156.896 39.099 155.906 38.6719C154.917 38.2448 154.083 37.6458 153.406 36.875C152.729 36.0938 152.214 35.1823 151.859 34.1406C151.505 33.0885 151.328 31.9479 151.328 30.7188ZM155.453 30.3906V30.7188C155.453 31.4583 155.526 32.151 155.672 32.7969C155.818 33.4427 156.042 34.0104 156.344 34.5C156.646 34.9896 157.036 35.375 157.516 35.6562C158.005 35.9271 158.589 36.0625 159.266 36.0625C159.932 36.0625 160.505 35.9271 160.984 35.6562C161.464 35.375 161.854 34.9896 162.156 34.5C162.469 34.0104 162.698 33.4427 162.844 32.7969C162.99 32.151 163.062 31.4583 163.062 30.7188V30.3906C163.062 29.6615 162.99 28.9792 162.844 28.3438C162.698 27.6979 162.469 27.1302 162.156 26.6406C161.854 26.1406 161.458 25.75 160.969 25.4688C160.49 25.1771 159.911 25.0312 159.234 25.0312C158.568 25.0312 157.995 25.1771 157.516 25.4688C157.036 25.75 156.646 26.1406 156.344 26.6406C156.042 27.1302 155.818 27.6979 155.672 28.3438C155.526 28.9792 155.453 29.6615 155.453 30.3906ZM175.594 39H171.438V20.5312C171.438 19.2604 171.682 18.1927 172.172 17.3281C172.661 16.4531 173.359 15.7917 174.266 15.3438C175.172 14.8958 176.24 14.6719 177.469 14.6719C177.875 14.6719 178.26 14.6979 178.625 14.75C179 14.8021 179.37 14.875 179.734 14.9688L179.656 18.1094C179.458 18.0573 179.24 18.0208 179 18C178.771 17.9792 178.516 17.9688 178.234 17.9688C177.672 17.9688 177.193 18.0677 176.797 18.2656C176.401 18.4635 176.099 18.7552 175.891 19.1406C175.693 19.5156 175.594 19.9792 175.594 20.5312V39ZM179.016 22.0938V25.0625H168.891V22.0938H179.016ZM180.828 30.7188V30.3906C180.828 29.151 181.005 28.0104 181.359 26.9688C181.714 25.9167 182.229 25.0052 182.906 24.2344C183.583 23.4635 184.411 22.8646 185.391 22.4375C186.37 22 187.484 21.7812 188.734 21.7812C190.005 21.7812 191.13 22 192.109 22.4375C193.099 22.8646 193.932 23.4635 194.609 24.2344C195.286 25.0052 195.802 25.9167 196.156 26.9688C196.51 28.0104 196.688 29.151 196.688 30.3906V30.7188C196.688 31.9479 196.51 33.0885 196.156 34.1406C195.802 35.1823 195.286 36.0938 194.609 36.875C193.932 37.6458 193.104 38.2448 192.125 38.6719C191.146 39.099 190.026 39.3125 188.766 39.3125C187.516 39.3125 186.396 39.099 185.406 38.6719C184.417 38.2448 183.583 37.6458 182.906 36.875C182.229 36.0938 181.714 35.1823 181.359 34.1406C181.005 33.0885 180.828 31.9479 180.828 30.7188ZM184.953 30.3906V30.7188C184.953 31.4583 185.026 32.151 185.172 32.7969C185.318 33.4427 185.542 34.0104 185.844 34.5C186.146 34.9896 186.536 35.375 187.016 35.6562C187.505 35.9271 188.089 36.0625 188.766 36.0625C189.432 36.0625 190.005 35.9271 190.484 35.6562C190.964 35.375 191.354 34.9896 191.656 34.5C191.969 34.0104 192.198 33.4427 192.344 32.7969C192.49 32.151 192.562 31.4583 192.562 30.7188V30.3906C192.562 29.6615 192.49 28.9792 192.344 28.3438C192.198 27.6979 191.969 27.1302 191.656 26.6406C191.354 26.1406 190.958 25.75 190.469 25.4688C189.99 25.1771 189.411 25.0312 188.734 25.0312C188.068 25.0312 187.495 25.1771 187.016 25.4688C186.536 25.75 186.146 26.1406 185.844 26.6406C185.542 27.1302 185.318 27.6979 185.172 28.3438C185.026 28.9792 184.953 29.6615 184.953 30.3906ZM206.625 36.0625C207.208 36.0625 207.729 35.9479 208.188 35.7188C208.646 35.4896 209.01 35.1667 209.281 34.75C209.562 34.3333 209.714 33.849 209.734 33.2969H213.625C213.604 34.4427 213.281 35.4688 212.656 36.375C212.031 37.2812 211.198 38 210.156 38.5312C209.125 39.0521 207.969 39.3125 206.688 39.3125C205.385 39.3125 204.25 39.0938 203.281 38.6562C202.312 38.2188 201.505 37.6094 200.859 36.8281C200.224 36.0469 199.745 35.1406 199.422 34.1094C199.109 33.0781 198.953 31.974 198.953 30.7969V30.2969C198.953 29.1198 199.109 28.0156 199.422 26.9844C199.745 25.9531 200.224 25.0469 200.859 24.2656C201.505 23.4844 202.312 22.875 203.281 22.4375C204.25 22 205.38 21.7812 206.672 21.7812C208.036 21.7812 209.234 22.0469 210.266 22.5781C211.307 23.1094 212.12 23.8594 212.703 24.8281C213.297 25.7969 213.604 26.9375 213.625 28.25H209.734C209.714 27.6458 209.578 27.1042 209.328 26.625C209.078 26.1458 208.724 25.7604 208.266 25.4688C207.807 25.1771 207.25 25.0312 206.594 25.0312C205.896 25.0312 205.312 25.1771 204.844 25.4688C204.385 25.7604 204.026 26.1615 203.766 26.6719C203.516 27.1719 203.339 27.7344 203.234 28.3594C203.141 28.974 203.094 29.6198 203.094 30.2969V30.7969C203.094 31.4844 203.141 32.1406 203.234 32.7656C203.339 33.3906 203.516 33.9531 203.766 34.4531C204.026 34.9427 204.385 35.3333 204.844 35.625C205.312 35.9167 205.906 36.0625 206.625 36.0625ZM226.438 34.9844V22.0938H230.594V39H226.688L226.438 34.9844ZM226.969 31.4844L228.25 31.4531C228.25 32.5885 228.125 33.6354 227.875 34.5938C227.625 35.5521 227.234 36.3854 226.703 37.0938C226.182 37.7917 225.521 38.3385 224.719 38.7344C223.917 39.1198 222.969 39.3125 221.875 39.3125C221.042 39.3125 220.281 39.1979 219.594 38.9688C218.906 38.7292 218.312 38.3594 217.812 37.8594C217.323 37.349 216.943 36.6979 216.672 35.9062C216.401 35.1042 216.266 34.1406 216.266 33.0156V22.0938H220.391V33.0469C220.391 33.6094 220.453 34.0781 220.578 34.4531C220.714 34.8281 220.896 35.1354 221.125 35.375C221.365 35.6042 221.641 35.7708 221.953 35.875C222.276 35.9688 222.62 36.0156 222.984 36.0156C223.984 36.0156 224.771 35.8177 225.344 35.4219C225.927 35.0156 226.344 34.474 226.594 33.7969C226.844 33.1094 226.969 32.3385 226.969 31.4844ZM243.547 34.375C243.547 34.0208 243.453 33.7031 243.266 33.4219C243.078 33.1406 242.724 32.8854 242.203 32.6562C241.693 32.4167 240.943 32.1927 239.953 31.9844C239.078 31.7969 238.271 31.5625 237.531 31.2812C236.792 31 236.156 30.6615 235.625 30.2656C235.094 29.8594 234.677 29.3854 234.375 28.8438C234.083 28.2917 233.938 27.6562 233.938 26.9375C233.938 26.2396 234.089 25.5833 234.391 24.9688C234.693 24.3438 235.13 23.7969 235.703 23.3281C236.276 22.849 236.974 22.474 237.797 22.2031C238.62 21.9219 239.547 21.7812 240.578 21.7812C242.016 21.7812 243.25 22.0156 244.281 22.4844C245.323 22.9531 246.12 23.599 246.672 24.4219C247.224 25.2344 247.5 26.151 247.5 27.1719H243.375C243.375 26.724 243.271 26.3177 243.062 25.9531C242.865 25.5885 242.557 25.2969 242.141 25.0781C241.724 24.849 241.198 24.7344 240.562 24.7344C239.99 24.7344 239.505 24.8281 239.109 25.0156C238.724 25.2031 238.432 25.4479 238.234 25.75C238.036 26.0521 237.938 26.3854 237.938 26.75C237.938 27.0208 237.99 27.2656 238.094 27.4844C238.208 27.6927 238.391 27.8854 238.641 28.0625C238.891 28.2396 239.229 28.401 239.656 28.5469C240.094 28.6927 240.63 28.8333 241.266 28.9688C242.526 29.2188 243.625 29.5521 244.562 29.9688C245.51 30.375 246.25 30.9167 246.781 31.5938C247.312 32.2708 247.578 33.1354 247.578 34.1875C247.578 34.9375 247.417 35.625 247.094 36.25C246.771 36.8646 246.302 37.401 245.688 37.8594C245.073 38.3177 244.339 38.6771 243.484 38.9375C242.63 39.1875 241.667 39.3125 240.594 39.3125C239.042 39.3125 237.729 39.0365 236.656 38.4844C235.583 37.9219 234.771 37.2135 234.219 36.3594C233.667 35.4948 233.391 34.599 233.391 33.6719H237.344C237.375 34.3281 237.552 34.8542 237.875 35.25C238.198 35.6458 238.604 35.9323 239.094 36.1094C239.594 36.276 240.12 36.3594 240.672 36.3594C241.297 36.3594 241.823 36.276 242.25 36.1094C242.677 35.9323 243 35.6979 243.219 35.4062C243.438 35.1042 243.547 34.7604 243.547 34.375Z" fill="white"/>
<path d="M26 4.32001C13.856 4.32001 4 13.5846 4 25C4 36.4154 13.856 45.68 26 45.68C38.144 45.68 48 36.4154 48 25C48 13.5846 38.144 4.32001 26 4.32001ZM21.6 35.34L10.6 25L13.702 22.0841L21.6 29.4876L38.298 13.7914L41.4 16.728L21.6 35.34Z" fill="white"/>
</svg>
